<svg height="512pt" viewBox="0 0 512 512" width="512pt" xmlns="http://www.w3.org/2000/svg" xmlns:xlink="http://www.w3.org/1999/xlink"><linearGradient id="a" gradientUnits="userSpaceOnUse" x1="74.9807" x2="437.0193" y1="74.9807" y2="437.0193"><stop offset="0" stop-color="#fffbd2"/><stop offset="1" stop-color="#fee3ac"/></linearGradient><linearGradient id="b"><stop offset="0" stop-color="#c84f36"/><stop offset="1" stop-color="#9e5544"/></linearGradient><linearGradient id="c" gradientUnits="userSpaceOnUse" x1="258.5515" x2="411.9588" xlink:href="#b" y1="272.2224" y2="425.6298"/><linearGradient id="d"><stop offset="0" stop-color="#fccc86"/><stop offset="1" stop-color="#f67547"/></linearGradient><linearGradient id="e" gradientUnits="userSpaceOnUse" x1="135.9212" x2="222.3525" xlink:href="#d" y1="77.194" y2="163.6253"/><linearGradient id="f" gradientUnits="userSpaceOnUse" x1="63.8421" x2="294.4316" y1="158.8412" y2="389.4307"><stop offset="0" stop-color="#f67547"/><stop offset="1" stop-color="#f34a28"/></linearGradient><linearGradient id="g" gradientUnits="userSpaceOnUse" x1="162.4726" x2="243.9602" xlink:href="#b" y1="320.1423" y2="401.63"/><linearGradient id="h" gradientUnits="userSpaceOnUse" x1="114.3135" x2="195.8012" xlink:href="#b" y1="320.1423" y2="401.63"/><linearGradient id="i"><stop offset="0" stop-color="#cde2ff"/><stop offset="1" stop-color="#69a8ff"/></linearGradient><linearGradient id="j" gradientUnits="userSpaceOnUse" x1="314.3948" x2="389.6036" xlink:href="#i" y1="84.4597" y2="159.6685"/><linearGradient id="k" gradientUnits="userSpaceOnUse" x1="150.2733" x2="208.0004" xlink:href="#d" y1="148.9545" y2="206.6815"/><linearGradient id="l" gradientUnits="userSpaceOnUse" x1="315.6491" x2="388.3493" xlink:href="#i" y1="189.777" y2="262.4772"/><linearGradient id="m" gradientUnits="userSpaceOnUse" x1="295.6656" x2="408.3328" y1="119.0163" y2="231.6835"><stop offset="0" stop-color="#69a8ff"/><stop offset="1" stop-color="#4482d9"/></linearGradient><path d="m512 256c0 141.386719-114.613281 256-256 256s-256-114.613281-256-256 114.613281-256 256-256 256 114.613281 256 256zm0 0" fill="url(#a)"/><path d="m400.15625 313.046875 19.136719-19.136719v-73.1875h-19.136719zm0 0" fill="#c0b5b1"/><path d="m284.703125 220.722656h19.136719v92.324219h-19.136719zm0 0" fill="#d5cecb"/><path d="m419.292969 293.910156h-182.429688l28.703125 124.382813h153.726563zm0 0" fill="url(#c)"/><path d="m179.136719 91.707031h-57.726563v57.40625h115.453125v-57.40625zm0 0" fill="url(#e)"/><path d="m179.136719 129.976562h-86.429688v288.316407h38.269531l48.160157-57.40625v-14.910157l48.160156 72.316407h38.269531v-288.316407zm0 0" fill="url(#f)"/><path d="m179.136719 303.476562-23.878907 57.410157 23.878907 57.40625h48.160156v-114.816407zm0 0" fill="url(#g)"/><path d="m130.976562 303.476562h48.160157v114.816407h-48.160157zm0 0" fill="url(#h)"/><path d="m419.292969 129.976562c0-21.101562-17.167969-38.269531-38.269531-38.269531h-58.046876c-21.105468 0-38.273437 17.167969-38.273437 38.269531l67.296875 28.707032zm0 0" fill="url(#j)"/><path d="m179.136719 168.25h-48.160157v19.136719h96.320313v-19.136719zm0 0" fill="url(#k)"/><path d="m327.945312 274.773438h48.109376l43.238281-54.050782-67.292969-28.703125-67.296875 28.703125zm0 0" fill="url(#l)"/><path d="m284.703125 129.976562h134.589844v90.746094h-134.589844zm0 0" fill="url(#m)"/></svg>